<svg xmlns="http://www.w3.org/2000/svg" xmlns:xlink="http://www.w3.org/1999/xlink" width="100" zoomAndPan="magnify" viewBox="0 0 75 74.999997" height="100" preserveAspectRatio="xMidYMid meet" version="1.0"><defs><clipPath id="abe682b2c2"><path d="M 30 1.351562 L 44 1.351562 L 44 11 L 30 11 Z M 30 1.351562 " clip-rule="nonzero"/></clipPath><clipPath id="4b0c56a176"><path d="M 16.160156 55 L 58.910156 55 L 58.910156 68 L 16.160156 68 Z M 16.160156 55 " clip-rule="nonzero"/></clipPath></defs><g clip-path="url(#abe682b2c2)"><path fill="#10261f" d="M 31.296875 10.28125 L 30.335938 10.28125 L 30.335938 7.917969 C 30.335938 6.609375 31.390625 5.523438 32.703125 5.523438 L 34.367188 5.523438 C 34.496094 4.46875 35.261719 3.640625 36.253906 3.382812 L 36.253906 1.339844 L 37.40625 1.339844 L 37.40625 3.382812 C 38.398438 3.636719 39.164062 4.46875 39.292969 5.519531 L 40.957031 5.519531 C 42.269531 5.519531 43.324219 6.605469 43.324219 7.914062 L 43.324219 10.28125 Z M 31.296875 10.28125 " fill-opacity="1" fill-rule="evenodd"/></g><path fill="#01cdcd" d="M 31.582031 18.996094 L 35.007812 18.996094 L 35.007812 16.410156 C 35.007812 15.421875 35.839844 14.589844 36.832031 14.589844 C 37.824219 14.589844 38.65625 15.421875 38.65625 16.410156 L 38.65625 18.996094 L 42.078125 18.996094 L 42.078125 11.300781 L 31.582031 11.300781 Z M 31.582031 18.996094 " fill-opacity="1" fill-rule="evenodd"/><path fill="#10261f" d="M 45.566406 47.640625 L 47.039062 57.636719 C 44.574219 57.574219 41.953125 56.996094 39.199219 56.421875 C 37.183594 56.039062 35.132812 55.625 33.085938 55.433594 C 36.609375 52.71875 40.992188 49.78125 45.566406 47.640625 Z M 45.566406 47.640625 " fill-opacity="1" fill-rule="evenodd"/><path fill="#01cdcd" d="M 43.742188 34.578125 L 44.925781 43.234375 C 41.375 44.925781 33.472656 49.042969 27.136719 54.984375 L 27.070312 55.046875 L 28.542969 44.507812 C 32.382812 41.382812 37.886719 37.328125 43.742188 34.578125 Z M 43.742188 34.578125 " fill-opacity="1" fill-rule="evenodd"/><path fill="#10261f" d="M 45.792969 19.988281 L 45.792969 22.316406 L 42.367188 24.839844 L 43.101562 30.175781 C 40.253906 31.515625 34.6875 34.386719 29.40625 38.476562 L 31.296875 24.839844 L 27.871094 22.316406 L 27.871094 19.988281 C 33.855469 19.988281 39.839844 19.988281 45.792969 19.988281 Z M 45.792969 19.988281 " fill-opacity="1" fill-rule="evenodd"/><g clip-path="url(#4b0c56a176)"><path fill="#01cdcd" d="M 16.160156 67.375 C 28.542969 46.652344 46.238281 70.441406 58.910156 55.464844 C 49.792969 76.316406 32.992188 53.132812 16.160156 67.375 Z M 16.160156 67.375 " fill-opacity="1" fill-rule="evenodd"/></g></svg>