<svg xmlns="http://www.w3.org/2000/svg" xmlns:xlink="http://www.w3.org/1999/xlink" width="500" zoomAndPan="magnify" viewBox="0 0 375 374.999991" height="500" preserveAspectRatio="xMidYMid meet" version="1.0"><defs><g/><clipPath id="0ddcfd3959"><path d="M 174 92.347656 L 199 92.347656 L 199 109 L 174 109 Z M 174 92.347656 " clip-rule="nonzero"/></clipPath><clipPath id="ff885cc87a"><path d="M 148.246094 191 L 226.996094 191 L 226.996094 214 L 148.246094 214 Z M 148.246094 191 " clip-rule="nonzero"/></clipPath></defs><g clip-path="url(#0ddcfd3959)"><path fill="#10261f" d="M 176.128906 108.785156 L 174.359375 108.785156 L 174.359375 104.4375 C 174.359375 102.03125 176.304688 100.035156 178.722656 100.035156 L 181.785156 100.035156 C 182.023438 98.097656 183.4375 96.570312 185.261719 96.097656 L 185.261719 92.339844 L 187.382812 92.339844 L 187.382812 96.097656 C 189.210938 96.566406 190.625 98.09375 190.859375 100.03125 L 193.925781 100.03125 C 196.339844 100.03125 198.285156 102.027344 198.285156 104.4375 L 198.285156 108.785156 Z M 176.128906 108.785156 " fill-opacity="1" fill-rule="evenodd"/></g><path fill="#01cdcd" d="M 176.660156 124.820312 L 182.964844 124.820312 L 182.964844 120.0625 C 182.964844 118.242188 184.5 116.714844 186.324219 116.714844 C 188.152344 116.714844 189.683594 118.242188 189.683594 120.0625 L 189.683594 124.820312 L 195.992188 124.820312 L 195.992188 110.664062 L 176.660156 110.664062 Z M 176.660156 124.820312 " fill-opacity="1" fill-rule="evenodd"/><path fill="#10261f" d="M 202.417969 177.507812 L 205.128906 195.894531 C 200.589844 195.777344 195.757812 194.71875 190.6875 193.664062 C 186.972656 192.957031 183.199219 192.195312 179.429688 191.839844 C 185.914062 186.847656 193.988281 181.445312 202.417969 177.507812 Z M 202.417969 177.507812 " fill-opacity="1" fill-rule="evenodd"/><path fill="#01cdcd" d="M 199.058594 153.484375 L 201.238281 169.402344 C 194.695312 172.515625 180.136719 180.089844 168.464844 191.015625 L 168.347656 191.132812 L 171.058594 171.75 C 178.132812 165.996094 188.269531 158.539062 199.058594 153.484375 Z M 199.058594 153.484375 " fill-opacity="1" fill-rule="evenodd"/><path fill="#10261f" d="M 202.832031 126.640625 L 202.832031 130.929688 L 196.523438 135.570312 L 197.878906 145.378906 C 192.632812 147.847656 182.375 153.132812 172.652344 160.652344 L 176.128906 135.570312 L 169.820312 130.929688 L 169.820312 126.640625 C 180.84375 126.640625 191.867188 126.640625 202.832031 126.640625 Z M 202.832031 126.640625 " fill-opacity="1" fill-rule="evenodd"/><g clip-path="url(#ff885cc87a)"><path fill="#01cdcd" d="M 148.246094 213.808594 C 171.058594 175.6875 203.65625 219.449219 227 191.902344 C 210.199219 230.257812 179.253906 187.613281 148.246094 213.808594 Z M 148.246094 213.808594 " fill-opacity="1" fill-rule="evenodd"/></g><g fill="#10261f" fill-opacity="1"><g transform="translate(108.245323, 254.420755)"><g><path d="M 13.90625 -18 C 12 -18 10.535156 -17.414062 9.515625 -16.25 C 8.503906 -15.082031 8 -13.4375 8 -11.3125 C 8 -9.144531 8.5625 -7.476562 9.6875 -6.3125 C 10.8125 -5.15625 12.332031 -4.578125 14.25 -4.578125 C 15.257812 -4.578125 16.117188 -4.710938 16.828125 -4.984375 C 17.535156 -5.253906 18.210938 -5.5625 18.859375 -5.90625 C 19.273438 -5.5625 19.597656 -5.144531 19.828125 -4.65625 C 20.066406 -4.175781 20.1875 -3.613281 20.1875 -2.96875 C 20.1875 -1.957031 19.625 -1.097656 18.5 -0.390625 C 17.375 0.316406 15.65625 0.671875 13.34375 0.671875 C 11.6875 0.671875 10.125 0.4375 8.65625 -0.03125 C 7.195312 -0.507812 5.921875 -1.238281 4.828125 -2.21875 C 3.742188 -3.195312 2.882812 -4.4375 2.25 -5.9375 C 1.613281 -7.4375 1.296875 -9.226562 1.296875 -11.3125 C 1.296875 -13.238281 1.597656 -14.9375 2.203125 -16.40625 C 2.816406 -17.882812 3.648438 -19.132812 4.703125 -20.15625 C 5.753906 -21.175781 6.988281 -21.945312 8.40625 -22.46875 C 9.820312 -22.988281 11.332031 -23.25 12.9375 -23.25 C 15.21875 -23.25 16.984375 -22.875 18.234375 -22.125 C 19.492188 -21.382812 20.125 -20.429688 20.125 -19.265625 C 20.125 -18.617188 19.960938 -18.0625 19.640625 -17.59375 C 19.316406 -17.125 18.941406 -16.75 18.515625 -16.46875 C 17.867188 -16.894531 17.179688 -17.253906 16.453125 -17.546875 C 15.722656 -17.847656 14.875 -18 13.90625 -18 Z M 13.90625 -18 "/></g></g></g><g fill="#10261f" fill-opacity="1"><g transform="translate(129.477179, 254.420755)"><g><path d="M 1.296875 -11.3125 C 1.296875 -13.238281 1.597656 -14.945312 2.203125 -16.4375 C 2.816406 -17.925781 3.648438 -19.171875 4.703125 -20.171875 C 5.753906 -21.179688 6.992188 -21.945312 8.421875 -22.46875 C 9.847656 -22.988281 11.390625 -23.25 13.046875 -23.25 C 14.710938 -23.25 16.257812 -22.988281 17.6875 -22.46875 C 19.113281 -21.945312 20.359375 -21.179688 21.421875 -20.171875 C 22.484375 -19.171875 23.316406 -17.925781 23.921875 -16.4375 C 24.535156 -14.945312 24.84375 -13.238281 24.84375 -11.3125 C 24.84375 -9.375 24.546875 -7.65625 23.953125 -6.15625 C 23.359375 -4.65625 22.53125 -3.398438 21.46875 -2.390625 C 20.414062 -1.390625 19.171875 -0.628906 17.734375 -0.109375 C 16.296875 0.410156 14.734375 0.671875 13.046875 0.671875 C 11.367188 0.671875 9.804688 0.40625 8.359375 -0.125 C 6.921875 -0.664062 5.679688 -1.441406 4.640625 -2.453125 C 3.609375 -3.472656 2.789062 -4.722656 2.1875 -6.203125 C 1.59375 -7.691406 1.296875 -9.394531 1.296875 -11.3125 Z M 8 -11.3125 C 8 -9.050781 8.457031 -7.363281 9.375 -6.25 C 10.289062 -5.132812 11.515625 -4.578125 13.046875 -4.578125 C 14.609375 -4.578125 15.847656 -5.132812 16.765625 -6.25 C 17.679688 -7.363281 18.140625 -9.050781 18.140625 -11.3125 C 18.140625 -13.539062 17.6875 -15.210938 16.78125 -16.328125 C 15.882812 -17.441406 14.65625 -18 13.09375 -18 C 11.550781 -18 10.316406 -17.445312 9.390625 -16.34375 C 8.460938 -15.238281 8 -13.5625 8 -11.3125 Z M 8 -11.3125 "/></g></g></g><g fill="#10261f" fill-opacity="1"><g transform="translate(155.61728, 254.420755)"><g><path d="M 22.828125 -0.78125 C 22.484375 -0.4375 21.984375 -0.171875 21.328125 0.015625 C 20.671875 0.203125 19.882812 0.296875 18.96875 0.296875 C 18.050781 0.296875 17.179688 0.160156 16.359375 -0.109375 C 15.546875 -0.378906 14.878906 -1.035156 14.359375 -2.078125 L 10.671875 -9.59375 C 10.296875 -10.363281 9.957031 -11.085938 9.65625 -11.765625 C 9.363281 -12.453125 9.046875 -13.238281 8.703125 -14.125 L 8.484375 -14.09375 C 8.578125 -12.757812 8.628906 -11.394531 8.640625 -10 C 8.660156 -8.613281 8.671875 -7.25 8.671875 -5.90625 L 8.671875 -0.15625 C 8.390625 -0.0703125 7.96875 0.00390625 7.40625 0.078125 C 6.851562 0.148438 6.304688 0.1875 5.765625 0.1875 C 5.222656 0.1875 4.738281 0.148438 4.3125 0.078125 C 3.894531 0.00390625 3.546875 -0.140625 3.265625 -0.359375 C 2.992188 -0.585938 2.785156 -0.894531 2.640625 -1.28125 C 2.492188 -1.664062 2.421875 -2.171875 2.421875 -2.796875 L 2.421875 -21.390625 C 2.765625 -21.878906 3.296875 -22.25 4.015625 -22.5 C 4.734375 -22.75 5.503906 -22.875 6.328125 -22.875 C 7.242188 -22.875 8.113281 -22.726562 8.9375 -22.4375 C 9.769531 -22.15625 10.4375 -21.503906 10.9375 -20.484375 L 14.65625 -12.984375 C 15.019531 -12.210938 15.351562 -11.484375 15.65625 -10.796875 C 15.957031 -10.117188 16.28125 -9.332031 16.625 -8.4375 L 16.8125 -8.484375 C 16.707031 -9.816406 16.640625 -11.148438 16.609375 -12.484375 C 16.585938 -13.828125 16.578125 -15.171875 16.578125 -16.515625 L 16.578125 -22.53125 C 16.859375 -22.601562 17.273438 -22.675781 17.828125 -22.75 C 18.390625 -22.832031 18.941406 -22.875 19.484375 -22.875 C 20.578125 -22.875 21.40625 -22.679688 21.96875 -22.296875 C 22.539062 -21.910156 22.828125 -21.109375 22.828125 -19.890625 Z M 22.828125 -0.78125 "/></g></g></g><g fill="#10261f" fill-opacity="1"><g transform="translate(180.86497, 254.420755)"><g><path d="M 1.375 -17.328125 C 1.195312 -17.597656 1.035156 -17.96875 0.890625 -18.4375 C 0.742188 -18.914062 0.671875 -19.414062 0.671875 -19.9375 C 0.671875 -20.90625 0.882812 -21.597656 1.3125 -22.015625 C 1.75 -22.429688 2.316406 -22.640625 3.015625 -22.640625 L 19.21875 -22.640625 C 19.394531 -22.367188 19.554688 -22 19.703125 -21.53125 C 19.859375 -21.0625 19.9375 -20.566406 19.9375 -20.046875 C 19.9375 -19.078125 19.71875 -18.378906 19.28125 -17.953125 C 18.84375 -17.535156 18.28125 -17.328125 17.59375 -17.328125 L 13.46875 -17.328125 L 13.46875 -0.15625 C 13.1875 -0.0703125 12.753906 0.00390625 12.171875 0.078125 C 11.597656 0.148438 11.023438 0.1875 10.453125 0.1875 C 9.878906 0.1875 9.375 0.140625 8.9375 0.046875 C 8.507812 -0.0351562 8.144531 -0.1875 7.84375 -0.40625 C 7.550781 -0.632812 7.328125 -0.945312 7.171875 -1.34375 C 7.023438 -1.738281 6.953125 -2.257812 6.953125 -2.90625 L 6.953125 -17.328125 Z M 1.375 -17.328125 "/></g></g></g><g fill="#10261f" fill-opacity="1"><g transform="translate(201.539075, 254.420755)"><g><path d="M 7.21875 -21.859375 C 7.632812 -22.109375 8.269531 -22.34375 9.125 -22.5625 C 9.976562 -22.789062 10.84375 -22.90625 11.71875 -22.90625 C 12.957031 -22.90625 14.050781 -22.722656 15 -22.359375 C 15.957031 -22.003906 16.570312 -21.441406 16.84375 -20.671875 C 17.289062 -19.390625 17.773438 -17.890625 18.296875 -16.171875 C 18.816406 -14.460938 19.335938 -12.695312 19.859375 -10.875 C 20.378906 -9.050781 20.882812 -7.253906 21.375 -5.484375 C 21.875 -3.710938 22.3125 -2.144531 22.6875 -0.78125 C 22.382812 -0.4375 21.9375 -0.160156 21.34375 0.046875 C 20.75 0.265625 20.039062 0.375 19.21875 0.375 C 18.625 0.375 18.125 0.320312 17.71875 0.21875 C 17.3125 0.125 16.976562 -0.0195312 16.71875 -0.21875 C 16.457031 -0.414062 16.242188 -0.675781 16.078125 -1 C 15.921875 -1.320312 15.78125 -1.695312 15.65625 -2.125 L 14.984375 -4.6875 L 8.25 -4.6875 C 8.050781 -3.9375 7.851562 -3.164062 7.65625 -2.375 C 7.457031 -1.582031 7.257812 -0.816406 7.0625 -0.078125 C 6.71875 0.046875 6.351562 0.148438 5.96875 0.234375 C 5.582031 0.328125 5.117188 0.375 4.578125 0.375 C 3.304688 0.375 2.367188 0.15625 1.765625 -0.28125 C 1.160156 -0.71875 0.859375 -1.316406 0.859375 -2.078125 C 0.859375 -2.429688 0.90625 -2.78125 1 -3.125 C 1.101562 -3.46875 1.21875 -3.875 1.34375 -4.34375 C 1.507812 -5.019531 1.75 -5.851562 2.0625 -6.84375 C 2.375 -7.832031 2.710938 -8.898438 3.078125 -10.046875 C 3.453125 -11.203125 3.847656 -12.390625 4.265625 -13.609375 C 4.691406 -14.828125 5.09375 -15.972656 5.46875 -17.046875 C 5.84375 -18.128906 6.179688 -19.09375 6.484375 -19.9375 C 6.796875 -20.78125 7.039062 -21.421875 7.21875 -21.859375 Z M 11.671875 -17.0625 C 11.328125 -16.019531 10.9375 -14.859375 10.5 -13.578125 C 10.070312 -12.304688 9.679688 -11.015625 9.328125 -9.703125 L 13.953125 -9.703125 C 13.597656 -11.046875 13.238281 -12.351562 12.875 -13.625 C 12.519531 -14.90625 12.195312 -16.050781 11.90625 -17.0625 Z M 11.671875 -17.0625 "/></g></g></g><g fill="#10261f" fill-opacity="1"><g transform="translate(224.853218, 254.420755)"><g><path d="M 13.90625 -18 C 12 -18 10.535156 -17.414062 9.515625 -16.25 C 8.503906 -15.082031 8 -13.4375 8 -11.3125 C 8 -9.144531 8.5625 -7.476562 9.6875 -6.3125 C 10.8125 -5.15625 12.332031 -4.578125 14.25 -4.578125 C 15.257812 -4.578125 16.117188 -4.710938 16.828125 -4.984375 C 17.535156 -5.253906 18.210938 -5.5625 18.859375 -5.90625 C 19.273438 -5.5625 19.597656 -5.144531 19.828125 -4.65625 C 20.066406 -4.175781 20.1875 -3.613281 20.1875 -2.96875 C 20.1875 -1.957031 19.625 -1.097656 18.5 -0.390625 C 17.375 0.316406 15.65625 0.671875 13.34375 0.671875 C 11.6875 0.671875 10.125 0.4375 8.65625 -0.03125 C 7.195312 -0.507812 5.921875 -1.238281 4.828125 -2.21875 C 3.742188 -3.195312 2.882812 -4.4375 2.25 -5.9375 C 1.613281 -7.4375 1.296875 -9.226562 1.296875 -11.3125 C 1.296875 -13.238281 1.597656 -14.9375 2.203125 -16.40625 C 2.816406 -17.882812 3.648438 -19.132812 4.703125 -20.15625 C 5.753906 -21.175781 6.988281 -21.945312 8.40625 -22.46875 C 9.820312 -22.988281 11.332031 -23.25 12.9375 -23.25 C 15.21875 -23.25 16.984375 -22.875 18.234375 -22.125 C 19.492188 -21.382812 20.125 -20.429688 20.125 -19.265625 C 20.125 -18.617188 19.960938 -18.0625 19.640625 -17.59375 C 19.316406 -17.125 18.941406 -16.75 18.515625 -16.46875 C 17.867188 -16.894531 17.179688 -17.253906 16.453125 -17.546875 C 15.722656 -17.847656 14.875 -18 13.90625 -18 Z M 13.90625 -18 "/></g></g></g><g fill="#10261f" fill-opacity="1"><g transform="translate(246.085074, 254.420755)"><g><path d="M 1.375 -17.328125 C 1.195312 -17.597656 1.035156 -17.96875 0.890625 -18.4375 C 0.742188 -18.914062 0.671875 -19.414062 0.671875 -19.9375 C 0.671875 -20.90625 0.882812 -21.597656 1.3125 -22.015625 C 1.75 -22.429688 2.316406 -22.640625 3.015625 -22.640625 L 19.21875 -22.640625 C 19.394531 -22.367188 19.554688 -22 19.703125 -21.53125 C 19.859375 -21.0625 19.9375 -20.566406 19.9375 -20.046875 C 19.9375 -19.078125 19.71875 -18.378906 19.28125 -17.953125 C 18.84375 -17.535156 18.28125 -17.328125 17.59375 -17.328125 L 13.46875 -17.328125 L 13.46875 -0.15625 C 13.1875 -0.0703125 12.753906 0.00390625 12.171875 0.078125 C 11.597656 0.148438 11.023438 0.1875 10.453125 0.1875 C 9.878906 0.1875 9.375 0.140625 8.9375 0.046875 C 8.507812 -0.0351562 8.144531 -0.1875 7.84375 -0.40625 C 7.550781 -0.632812 7.328125 -0.945312 7.171875 -1.34375 C 7.023438 -1.738281 6.953125 -2.257812 6.953125 -2.90625 L 6.953125 -17.328125 Z M 1.375 -17.328125 "/></g></g></g><g fill="#009c9c" fill-opacity="1"><g transform="translate(132.202797, 282.795245)"><g><path d="M 11.5 -0.078125 C 11.351562 -0.0351562 11.128906 0 10.828125 0.03125 C 10.535156 0.0703125 10.25 0.09375 9.96875 0.09375 C 9.675781 0.09375 9.414062 0.0703125 9.1875 0.03125 C 8.96875 -0.0078125 8.78125 -0.0859375 8.625 -0.203125 C 8.476562 -0.316406 8.367188 -0.472656 8.296875 -0.671875 C 8.222656 -0.878906 8.1875 -1.148438 8.1875 -1.484375 L 8.1875 -4.4375 L 4.546875 -4.4375 L 4.546875 -0.078125 C 4.410156 -0.0351562 4.191406 0 3.890625 0.03125 C 3.597656 0.0703125 3.304688 0.09375 3.015625 0.09375 C 2.722656 0.09375 2.460938 0.0703125 2.234375 0.03125 C 2.015625 -0.0078125 1.828125 -0.0859375 1.671875 -0.203125 C 1.523438 -0.316406 1.414062 -0.472656 1.34375 -0.671875 C 1.269531 -0.878906 1.234375 -1.148438 1.234375 -1.484375 L 1.234375 -11.46875 C 1.367188 -11.5 1.585938 -11.535156 1.890625 -11.578125 C 2.191406 -11.617188 2.484375 -11.640625 2.765625 -11.640625 C 3.054688 -11.640625 3.3125 -11.617188 3.53125 -11.578125 C 3.75 -11.535156 3.929688 -11.457031 4.078125 -11.34375 C 4.234375 -11.226562 4.347656 -11.066406 4.421875 -10.859375 C 4.503906 -10.660156 4.546875 -10.398438 4.546875 -10.078125 L 4.546875 -7.046875 L 8.1875 -7.046875 L 8.1875 -11.46875 C 8.320312 -11.5 8.539062 -11.535156 8.84375 -11.578125 C 9.144531 -11.617188 9.4375 -11.640625 9.71875 -11.640625 C 10.007812 -11.640625 10.265625 -11.617188 10.484375 -11.578125 C 10.703125 -11.535156 10.882812 -11.457031 11.03125 -11.34375 C 11.1875 -11.226562 11.300781 -11.066406 11.375 -10.859375 C 11.457031 -10.660156 11.5 -10.398438 11.5 -10.078125 Z M 11.5 -0.078125 "/></g></g></g><g fill="#009c9c" fill-opacity="1"><g transform="translate(152.507794, 282.795245)"><g><path d="M 3.671875 -11.140625 C 3.890625 -11.265625 4.210938 -11.382812 4.640625 -11.5 C 5.078125 -11.613281 5.519531 -11.671875 5.96875 -11.671875 C 6.59375 -11.671875 7.148438 -11.578125 7.640625 -11.390625 C 8.128906 -11.203125 8.441406 -10.914062 8.578125 -10.53125 C 8.804688 -9.875 9.050781 -9.109375 9.3125 -8.234375 C 9.582031 -7.367188 9.847656 -6.46875 10.109375 -5.53125 C 10.378906 -4.601562 10.640625 -3.6875 10.890625 -2.78125 C 11.140625 -1.882812 11.359375 -1.085938 11.546875 -0.390625 C 11.398438 -0.210938 11.175781 -0.0703125 10.875 0.03125 C 10.570312 0.132812 10.210938 0.1875 9.796875 0.1875 C 9.492188 0.1875 9.238281 0.160156 9.03125 0.109375 C 8.820312 0.0546875 8.648438 -0.015625 8.515625 -0.109375 C 8.378906 -0.210938 8.269531 -0.34375 8.1875 -0.5 C 8.101562 -0.664062 8.03125 -0.859375 7.96875 -1.078125 L 7.625 -2.390625 L 4.203125 -2.390625 C 4.097656 -2.003906 3.992188 -1.609375 3.890625 -1.203125 C 3.796875 -0.804688 3.695312 -0.414062 3.59375 -0.03125 C 3.414062 0.03125 3.226562 0.0820312 3.03125 0.125 C 2.84375 0.164062 2.609375 0.1875 2.328125 0.1875 C 1.679688 0.1875 1.203125 0.078125 0.890625 -0.140625 C 0.585938 -0.359375 0.4375 -0.664062 0.4375 -1.0625 C 0.4375 -1.238281 0.460938 -1.414062 0.515625 -1.59375 C 0.566406 -1.769531 0.625 -1.976562 0.6875 -2.21875 C 0.769531 -2.5625 0.890625 -2.984375 1.046875 -3.484375 C 1.203125 -3.984375 1.375 -4.523438 1.5625 -5.109375 C 1.757812 -5.703125 1.960938 -6.304688 2.171875 -6.921875 C 2.390625 -7.546875 2.59375 -8.128906 2.78125 -8.671875 C 2.96875 -9.222656 3.140625 -9.710938 3.296875 -10.140625 C 3.460938 -10.578125 3.585938 -10.910156 3.671875 -11.140625 Z M 5.953125 -8.6875 C 5.773438 -8.15625 5.570312 -7.566406 5.34375 -6.921875 C 5.125 -6.273438 4.925781 -5.613281 4.75 -4.9375 L 7.109375 -4.9375 C 6.929688 -5.625 6.75 -6.289062 6.5625 -6.9375 C 6.375 -7.59375 6.207031 -8.175781 6.0625 -8.6875 Z M 5.953125 -8.6875 "/></g></g></g><g fill="#009c9c" fill-opacity="1"><g transform="translate(171.960608, 282.795245)"><g><path d="M 4.53125 -3.71875 L 4.53125 -0.078125 C 4.382812 -0.0351562 4.160156 0 3.859375 0.03125 C 3.566406 0.0703125 3.273438 0.09375 2.984375 0.09375 C 2.703125 0.09375 2.445312 0.0703125 2.21875 0.03125 C 2 -0.0078125 1.816406 -0.0859375 1.671875 -0.203125 C 1.523438 -0.316406 1.414062 -0.472656 1.34375 -0.671875 C 1.269531 -0.878906 1.234375 -1.148438 1.234375 -1.484375 L 1.234375 -10.390625 C 1.234375 -10.660156 1.304688 -10.867188 1.453125 -11.015625 C 1.597656 -11.160156 1.796875 -11.273438 2.046875 -11.359375 C 2.472656 -11.515625 2.96875 -11.625 3.53125 -11.6875 C 4.101562 -11.757812 4.710938 -11.796875 5.359375 -11.796875 C 7.097656 -11.796875 8.410156 -11.425781 9.296875 -10.6875 C 10.179688 -9.957031 10.625 -8.96875 10.625 -7.71875 C 10.625 -6.9375 10.421875 -6.269531 10.015625 -5.71875 C 9.609375 -5.164062 9.128906 -4.738281 8.578125 -4.4375 C 9.035156 -3.8125 9.484375 -3.226562 9.921875 -2.6875 C 10.367188 -2.144531 10.71875 -1.65625 10.96875 -1.21875 C 10.84375 -0.769531 10.609375 -0.425781 10.265625 -0.1875 C 9.929688 0.0390625 9.554688 0.15625 9.140625 0.15625 C 8.867188 0.15625 8.628906 0.125 8.421875 0.0625 C 8.222656 0 8.046875 -0.0859375 7.890625 -0.203125 C 7.742188 -0.316406 7.609375 -0.457031 7.484375 -0.625 C 7.359375 -0.789062 7.238281 -0.96875 7.125 -1.15625 L 5.53125 -3.71875 Z M 5.71875 -6.234375 C 6.195312 -6.234375 6.570312 -6.351562 6.84375 -6.59375 C 7.125 -6.84375 7.265625 -7.207031 7.265625 -7.6875 C 7.265625 -8.164062 7.109375 -8.523438 6.796875 -8.765625 C 6.492188 -9.015625 6.007812 -9.140625 5.34375 -9.140625 C 5.15625 -9.140625 5.003906 -9.132812 4.890625 -9.125 C 4.773438 -9.113281 4.644531 -9.097656 4.5 -9.078125 L 4.5 -6.234375 Z M 5.71875 -6.234375 "/></g></g></g><g fill="#009c9c" fill-opacity="1"><g transform="translate(191.072546, 282.795245)"><g><path d="M 4.453125 -2.375 C 4.628906 -2.320312 4.851562 -2.285156 5.125 -2.265625 C 5.40625 -2.242188 5.671875 -2.234375 5.921875 -2.234375 C 6.429688 -2.234375 6.851562 -2.335938 7.1875 -2.546875 C 7.519531 -2.753906 7.6875 -3.078125 7.6875 -3.515625 C 7.6875 -3.929688 7.546875 -4.226562 7.265625 -4.40625 C 6.992188 -4.582031 6.570312 -4.671875 6 -4.671875 L 4.453125 -4.671875 Z M 4.453125 -6.984375 L 5.828125 -6.984375 C 6.367188 -6.984375 6.765625 -7.082031 7.015625 -7.28125 C 7.265625 -7.488281 7.390625 -7.789062 7.390625 -8.1875 C 7.390625 -8.519531 7.242188 -8.785156 6.953125 -8.984375 C 6.671875 -9.191406 6.25 -9.296875 5.6875 -9.296875 C 5.488281 -9.296875 5.265625 -9.289062 5.015625 -9.28125 C 4.773438 -9.269531 4.585938 -9.25 4.453125 -9.21875 Z M 5.6875 0.296875 C 5.46875 0.296875 5.210938 0.289062 4.921875 0.28125 C 4.628906 0.269531 4.328125 0.242188 4.015625 0.203125 C 3.710938 0.171875 3.410156 0.125 3.109375 0.0625 C 2.804688 0.0078125 2.523438 -0.0664062 2.265625 -0.171875 C 1.578125 -0.429688 1.234375 -0.890625 1.234375 -1.546875 L 1.234375 -10.390625 C 1.234375 -10.660156 1.304688 -10.867188 1.453125 -11.015625 C 1.597656 -11.160156 1.796875 -11.273438 2.046875 -11.359375 C 2.472656 -11.515625 3.007812 -11.625 3.65625 -11.6875 C 4.300781 -11.757812 4.960938 -11.796875 5.640625 -11.796875 C 7.253906 -11.796875 8.5 -11.523438 9.375 -10.984375 C 10.25 -10.441406 10.6875 -9.601562 10.6875 -8.46875 C 10.6875 -7.894531 10.519531 -7.398438 10.1875 -6.984375 C 9.863281 -6.578125 9.421875 -6.28125 8.859375 -6.09375 C 9.492188 -5.914062 10.019531 -5.59375 10.4375 -5.125 C 10.863281 -4.664062 11.078125 -4.082031 11.078125 -3.375 C 11.078125 -2.125 10.613281 -1.195312 9.6875 -0.59375 C 8.757812 0 7.425781 0.296875 5.6875 0.296875 Z M 5.6875 0.296875 "/></g></g></g><g fill="#009c9c" fill-opacity="1"><g transform="translate(210.373864, 282.795245)"><g><path d="M 0.65625 -5.75 C 0.65625 -6.738281 0.8125 -7.609375 1.125 -8.359375 C 1.4375 -9.117188 1.859375 -9.753906 2.390625 -10.265625 C 2.929688 -10.785156 3.5625 -11.175781 4.28125 -11.4375 C 5.007812 -11.707031 5.796875 -11.84375 6.640625 -11.84375 C 7.492188 -11.84375 8.28125 -11.707031 9 -11.4375 C 9.726562 -11.175781 10.363281 -10.785156 10.90625 -10.265625 C 11.445312 -9.753906 11.875 -9.117188 12.1875 -8.359375 C 12.5 -7.609375 12.65625 -6.738281 12.65625 -5.75 C 12.65625 -4.769531 12.5 -3.894531 12.1875 -3.125 C 11.882812 -2.363281 11.460938 -1.726562 10.921875 -1.21875 C 10.390625 -0.707031 9.757812 -0.316406 9.03125 -0.046875 C 8.300781 0.210938 7.503906 0.34375 6.640625 0.34375 C 5.785156 0.34375 4.988281 0.207031 4.25 -0.0625 C 3.519531 -0.332031 2.890625 -0.726562 2.359375 -1.25 C 1.835938 -1.769531 1.421875 -2.40625 1.109375 -3.15625 C 0.804688 -3.914062 0.65625 -4.78125 0.65625 -5.75 Z M 4.078125 -5.75 C 4.078125 -4.601562 4.304688 -3.742188 4.765625 -3.171875 C 5.234375 -2.609375 5.859375 -2.328125 6.640625 -2.328125 C 7.441406 -2.328125 8.070312 -2.609375 8.53125 -3.171875 C 9 -3.742188 9.234375 -4.601562 9.234375 -5.75 C 9.234375 -6.894531 9.003906 -7.75 8.546875 -8.3125 C 8.085938 -8.882812 7.460938 -9.171875 6.671875 -9.171875 C 5.878906 -9.171875 5.25 -8.890625 4.78125 -8.328125 C 4.3125 -7.765625 4.078125 -6.90625 4.078125 -5.75 Z M 4.078125 -5.75 "/></g></g></g><g fill="#009c9c" fill-opacity="1"><g transform="translate(231.265915, 282.795245)"><g><path d="M 4.53125 -3.71875 L 4.53125 -0.078125 C 4.382812 -0.0351562 4.160156 0 3.859375 0.03125 C 3.566406 0.0703125 3.273438 0.09375 2.984375 0.09375 C 2.703125 0.09375 2.445312 0.0703125 2.21875 0.03125 C 2 -0.0078125 1.816406 -0.0859375 1.671875 -0.203125 C 1.523438 -0.316406 1.414062 -0.472656 1.34375 -0.671875 C 1.269531 -0.878906 1.234375 -1.148438 1.234375 -1.484375 L 1.234375 -10.390625 C 1.234375 -10.660156 1.304688 -10.867188 1.453125 -11.015625 C 1.597656 -11.160156 1.796875 -11.273438 2.046875 -11.359375 C 2.472656 -11.515625 2.96875 -11.625 3.53125 -11.6875 C 4.101562 -11.757812 4.710938 -11.796875 5.359375 -11.796875 C 7.097656 -11.796875 8.410156 -11.425781 9.296875 -10.6875 C 10.179688 -9.957031 10.625 -8.96875 10.625 -7.71875 C 10.625 -6.9375 10.421875 -6.269531 10.015625 -5.71875 C 9.609375 -5.164062 9.128906 -4.738281 8.578125 -4.4375 C 9.035156 -3.8125 9.484375 -3.226562 9.921875 -2.6875 C 10.367188 -2.144531 10.71875 -1.65625 10.96875 -1.21875 C 10.84375 -0.769531 10.609375 -0.425781 10.265625 -0.1875 C 9.929688 0.0390625 9.554688 0.15625 9.140625 0.15625 C 8.867188 0.15625 8.628906 0.125 8.421875 0.0625 C 8.222656 0 8.046875 -0.0859375 7.890625 -0.203125 C 7.742188 -0.316406 7.609375 -0.457031 7.484375 -0.625 C 7.359375 -0.789062 7.238281 -0.96875 7.125 -1.15625 L 5.53125 -3.71875 Z M 5.71875 -6.234375 C 6.195312 -6.234375 6.570312 -6.351562 6.84375 -6.59375 C 7.125 -6.84375 7.265625 -7.207031 7.265625 -7.6875 C 7.265625 -8.164062 7.109375 -8.523438 6.796875 -8.765625 C 6.492188 -9.015625 6.007812 -9.140625 5.34375 -9.140625 C 5.15625 -9.140625 5.003906 -9.132812 4.890625 -9.125 C 4.773438 -9.113281 4.644531 -9.097656 4.5 -9.078125 L 4.5 -6.234375 Z M 5.71875 -6.234375 "/></g></g></g></svg>